{
	"asset":{
		"generator":"Khronos glTF Blender I/O v3.6.27",
		"version":"2.0"
	},
	"extensionsUsed":[
		"KHR_materials_specular",
		"KHR_materials_ior"
	],
	"scene":0,
	"scenes":[
		{
			"name":"Scene",
			"nodes":[
				0,
				1
			]
		}
	],
	"nodes":[
		{
			"mesh":0,
			"name":"Gravestone",
			"translation":[
				0.005811184644699097,
				-0.00507654994726181,
				0
			]
		},
		{
			"mesh":1,
			"name":"GraveDirt",
			"translation":[
				0.005811184644699097,
				0.0059395767748355865,
				1.9211081266403198
			]
		}
	],
	"materials":[
		{
			"doubleSided":true,
			"extensions":{
				"KHR_materials_specular":{
					"specularColorFactor":[
						0.3697278008609918,
						0.3697278008609918,
						0.3697278008609918
					]
				},
				"KHR_materials_ior":{
					"ior":1.4500000476837158
				}
			},
			"name":"M_Gravestone",
			"normalTexture":{
				"index":0
			},
			"pbrMetallicRoughness":{
				"metallicFactor":0,
				"roughnessFactor":0.9301074743270874
			}
		}
	],
	"meshes":[
		{
			"name":"Cube.001",
			"primitives":[
				{
					"attributes":{
						"COLOR_0":0,
						"POSITION":1,
						"NORMAL":2,
						"TEXCOORD_0":3
					},
					"indices":4,
					"material":0
				}
			]
		},
		{
			"name":"Cube.004",
			"primitives":[
				{
					"attributes":{
						"COLOR_0":5,
						"POSITION":6,
						"NORMAL":7,
						"TEXCOORD_0":8
					},
					"indices":9,
					"material":0
				}
			]
		}
	],
	"textures":[
		{
			"sampler":0,
			"source":0
		}
	],
	"images":[
		{
			"mimeType":"image/png",
			"name":"N_Gravestone",
			"uri":"N_Gravestone.png"
		}
	],
	"accessors":[
		{
			"bufferView":0,
			"componentType":5123,
			"count":248,
			"normalized":true,
			"type":"VEC4"
		},
		{
			"bufferView":1,
			"componentType":5126,
			"count":248,
			"max":[
				1.100782036781311,
				3.178790330886841,
				0.4031364321708679
			],
			"min":[
				-1.0762547254562378,
				-0.0011417658533900976,
				-0.4031364321708679
			],
			"type":"VEC3"
		},
		{
			"bufferView":2,
			"componentType":5126,
			"count":248,
			"type":"VEC3"
		},
		{
			"bufferView":3,
			"componentType":5126,
			"count":248,
			"type":"VEC2"
		},
		{
			"bufferView":4,
			"componentType":5123,
			"count":372,
			"type":"SCALAR"
		},
		{
			"bufferView":5,
			"componentType":5123,
			"count":17,
			"normalized":true,
			"type":"VEC4"
		},
		{
			"bufferView":6,
			"componentType":5126,
			"count":17,
			"max":[
				1.1786977052688599,
				0.514153778553009,
				2.73895263671875
			],
			"min":[
				-1.1369500160217285,
				-0.0025125741958618164,
				-1.3879448175430298
			],
			"type":"VEC3"
		},
		{
			"bufferView":7,
			"componentType":5126,
			"count":17,
			"type":"VEC3"
		},
		{
			"bufferView":8,
			"componentType":5126,
			"count":17,
			"type":"VEC2"
		},
		{
			"bufferView":9,
			"componentType":5123,
			"count":72,
			"type":"SCALAR"
		}
	],
	"bufferViews":[
		{
			"buffer":0,
			"byteLength":1984,
			"byteOffset":0,
			"target":34962
		},
		{
			"buffer":0,
			"byteLength":2976,
			"byteOffset":1984,
			"target":34962
		},
		{
			"buffer":0,
			"byteLength":2976,
			"byteOffset":4960,
			"target":34962
		},
		{
			"buffer":0,
			"byteLength":1984,
			"byteOffset":7936,
			"target":34962
		},
		{
			"buffer":0,
			"byteLength":744,
			"byteOffset":9920,
			"target":34963
		},
		{
			"buffer":0,
			"byteLength":136,
			"byteOffset":10664,
			"target":34962
		},
		{
			"buffer":0,
			"byteLength":204,
			"byteOffset":10800,
			"target":34962
		},
		{
			"buffer":0,
			"byteLength":204,
			"byteOffset":11004,
			"target":34962
		},
		{
			"buffer":0,
			"byteLength":136,
			"byteOffset":11208,
			"target":34962
		},
		{
			"buffer":0,
			"byteLength":144,
			"byteOffset":11344,
			"target":34963
		}
	],
	"samplers":[
		{
			"magFilter":9729,
			"minFilter":9987
		}
	],
	"buffers":[
		{
			"byteLength":11488,
			"uri":"PSX_Gravestone.bin"
		}
	]
}
